<!DOCTYPE svg PUBLIC "-//W3C//DTD SVG 20010904//EN" "http://www.w3.org/TR/2001/REC-SVG-20010904/DTD/svg10.dtd">
<svg version="1.0" xmlns="http://www.w3.org/2000/svg" width="1024px" height="1024px" viewBox="0 0 10240 10240" preserveAspectRatio="xMidYMid meet">
<g id="layer101" fill="#02b793" stroke="none">
 <path d="M4665 10225 c-884 -81 -1713 -378 -2433 -871 -525 -359 -987 -821 -1346 -1346 -435 -636 -725 -1375 -836 -2135 -68 -469 -68 -1037 0 -1506 111 -760 401 -1499 836 -2135 676 -987 1677 -1711 2814 -2037 319 -91 637 -150 977 -180 219 -19 667 -19 886 0 1077 95 2060 507 2887 1209 237 201 538 519 736 776 529 687 879 1513 1004 2367 68 469 68 1037 0 1506 -111 760 -401 1499 -836 2135 -180 263 -351 469 -583 705 -400 407 -840 729 -1340 981 -596 301 -1199 472 -1868 531 -206 18 -698 18 -898 0z"/>
 </g>
<g id="layer102" fill="#7da06f" stroke="none">
 <path d="M4665 10225 c-884 -81 -1713 -378 -2433 -871 -525 -359 -987 -821 -1346 -1346 -435 -636 -725 -1375 -836 -2135 -68 -469 -68 -1037 0 -1506 111 -760 401 -1499 836 -2135 676 -987 1677 -1711 2814 -2037 319 -91 637 -150 977 -180 219 -19 667 -19 886 0 1077 95 2060 507 2887 1209 237 201 538 519 736 776 529 687 879 1513 1004 2367 68 469 68 1037 0 1506 -111 760 -401 1499 -836 2135 -180 263 -351 469 -583 705 -400 407 -840 729 -1340 981 -596 301 -1199 472 -1868 531 -206 18 -698 18 -898 0z m-316 -2644 c33 -10 82 -31 108 -46 31 -18 376 -355 989 -967 726 -725 950 -954 978 -1001 19 -33 33 -63 31 -65 -3 -3 -31 7 -64 22 -120 54 -203 69 -366 69 -122 0 -164 -4 -228 -21 -143 -39 -275 -109 -381 -201 l-49 -43 -750 749 c-464 463 -764 770 -787 806 -58 87 -75 146 -74 257 0 137 43 238 141 334 113 112 297 155 452 107z"/>
 </g>
<g id="layer103" fill="#b09365" stroke="none">
 <path d="M4665 10225 c-884 -81 -1713 -378 -2433 -871 -525 -359 -987 -821 -1346 -1346 -435 -636 -725 -1375 -836 -2135 -68 -469 -68 -1037 0 -1506 111 -760 401 -1499 836 -2135 676 -987 1677 -1711 2814 -2037 319 -91 637 -150 977 -180 219 -19 667 -19 886 0 1077 95 2060 507 2887 1209 237 201 538 519 736 776 529 687 879 1513 1004 2367 68 469 68 1037 0 1506 -111 760 -401 1499 -836 2135 -180 263 -351 469 -583 705 -400 407 -840 729 -1340 981 -596 301 -1199 472 -1868 531 -206 18 -698 18 -898 0z m-310 -2642 c28 -8 70 -27 95 -40 62 -35 1918 -1887 1971 -1967 51 -77 51 -93 2 -67 -68 34 -197 69 -300 82 -256 31 -535 -61 -724 -238 l-36 -34 -753 758 c-414 417 -765 777 -781 799 -47 69 -71 141 -76 235 -20 329 287 569 602 472z"/>
 </g>
<g id="layer104" fill="#f18552" stroke="none">
 <path d="M2934 6518 c-570 -571 -921 -930 -937 -958 -44 -78 -60 -152 -55 -259 3 -78 9 -107 31 -156 123 -265 424 -364 674 -220 49 28 1563 1529 1563 1550 0 6 -81 91 -180 190 -100 99 -195 201 -211 228 -91 141 -91 345 0 490 17 26 30 47 28 47 -1 0 -412 -411 -913 -912z"/>
 <path d="M5925 5590 c-91 -10 -183 -34 -269 -71 -79 -34 -217 -122 -259 -167 l-28 -30 1062 -1066 c584 -587 1088 -1086 1121 -1111 81 -61 154 -87 260 -93 200 -11 367 94 455 283 23 50 28 77 31 160 5 115 -15 191 -72 279 -46 70 -1606 1623 -1676 1668 -169 109 -426 170 -625 148z"/>
 </g>
<g id="layer105" fill="#feae2f" stroke="none">
 <path d="M2929 6513 c-903 -905 -916 -919 -949 -992 -59 -133 -53 -293 17 -423 31 -56 119 -143 183 -181 139 -81 349 -72 482 21 24 17 383 371 798 786 l755 756 -191 192 c-105 106 -203 213 -217 238 -80 141 -75 335 12 473 17 26 29 47 28 47 -1 0 -414 -413 -918 -917z"/>
 </g>

</svg>